<svg width="565" height="141" viewBox="0 0 565 141" fill="none" xmlns="http://www.w3.org/2000/svg">
<path d="M169.701 88.7086L152.488 88.5428L152.584 79.171L169.796 79.337L169.701 88.7086ZM73.1237 86.599L57.1538 86.4452L57.2498 77.0734L73.2197 77.2274L73.1237 86.599ZM92.8387 90.7385C95.0075 90.7594 96.8051 90.4427 98.2314 89.7884C99.658 89.134 100.911 88.0654 101.991 86.5825C103.071 85.0996 104.156 83.1254 105.246 80.6601C107.428 75.4545 109.664 70.8585 111.953 66.8721C114.241 62.925 117.073 59.8281 120.448 57.5812C123.823 55.3738 128.191 54.2958 133.554 54.3475C138.443 54.3946 142.69 55.6342 146.293 58.0661C149.896 60.5373 152.661 63.9043 154.59 68.1671C156.557 72.4697 157.512 77.4109 157.455 82.9906C157.411 87.2345 156.74 91.0989 155.443 94.584C154.146 98.0694 152.281 101.077 149.85 103.608C147.457 106.139 144.52 108.076 141.036 109.418C137.591 110.76 133.68 111.41 129.303 111.368L129.506 91.5045C131.753 91.5262 133.689 91.309 135.31 90.8531C136.932 90.4365 138.258 89.8204 139.292 89.0051C140.326 88.1898 141.085 87.2343 141.57 86.1387C142.093 85.0433 142.362 83.8473 142.375 82.5506C142.395 80.5859 141.978 78.9902 141.123 77.7637C140.307 76.5376 139.212 75.6428 137.838 75.0794C136.463 74.516 134.928 74.2262 133.232 74.2098C131.458 74.1927 129.898 74.4724 128.551 75.0489C127.243 75.6651 126.009 76.7143 124.851 78.1964C123.732 79.679 122.567 81.7113 121.358 84.2933C119.136 89.3807 116.843 93.9172 114.475 97.9033C112.107 101.889 109.216 105.004 105.802 107.251C102.427 109.537 98.0773 110.654 92.7537 110.603C87.6276 110.554 83.2629 109.313 79.6597 106.881C76.0959 104.449 73.3896 101.083 71.5407 96.782C69.6918 92.4804 68.7961 87.5202 68.8536 81.901C68.8922 78.1288 69.4235 74.3809 70.4475 70.6574C71.4712 66.9732 73.1027 63.6093 75.3423 60.5656C77.6209 57.5615 80.6227 55.1736 84.3478 53.4018C88.073 51.63 92.6366 50.7701 98.0386 50.8221L97.8351 70.6855C95.1935 70.66 92.9821 70.9532 91.2012 71.5648C89.4203 72.1764 87.9921 73.0075 86.9166 74.0582C85.8801 75.1486 85.1183 76.3791 84.631 77.7499C84.1832 79.121 83.9516 80.5532 83.9364 82.0464C83.9158 84.0504 84.2935 85.6849 85.0693 86.95C85.8844 88.2154 86.9594 89.1492 88.294 89.7515C89.6677 90.3936 91.1826 90.7226 92.8387 90.7385Z" fill="#07BB39"/>
<path d="M36.6145 113.207C31.4093 113.207 26.756 112.401 22.655 110.789C18.5538 109.139 15.0837 106.88 12.2444 104.011C9.44461 101.142 7.29546 97.8414 5.79698 94.1081C4.33793 90.375 3.6084 86.4257 3.6084 82.2602V80.0203C3.6084 75.344 4.25906 71.0214 5.56037 67.0524C6.86169 63.0442 8.79394 59.5468 11.3572 56.5602C13.9203 53.5737 17.1342 51.2552 20.9987 49.6048C24.8632 47.915 29.3587 47.0701 34.4851 47.0701C39.02 47.0701 43.0816 47.7971 46.6701 49.2511C50.2586 50.705 53.295 52.7878 55.7794 55.4992C58.3031 58.2107 60.2156 61.4919 61.517 65.3431C62.8577 69.1941 63.5281 73.5167 63.5281 78.3109V86.3863H11.2389V73.949H44.0675V72.4164C44.1069 70.2944 43.7323 68.4868 42.9436 66.9934C42.1944 65.5002 41.0902 64.3606 39.6312 63.5747C38.1721 62.7887 36.3976 62.3958 34.3076 62.3958C32.1387 62.3958 30.3445 62.8673 28.9249 63.8104C27.5447 64.7536 26.4603 66.0504 25.6717 67.7009C24.9223 69.312 24.39 71.1785 24.0745 73.3006C23.7591 75.4226 23.6013 77.6625 23.6013 80.0203V82.2602C23.6013 84.6181 23.9168 86.7597 24.5478 88.6852C25.2181 90.6107 26.1646 92.2612 27.387 93.6365C28.6489 94.9727 30.1474 96.014 31.8824 96.7608C33.657 97.5073 35.6681 97.881 37.9158 97.881C40.6368 97.881 43.3183 97.3702 45.9603 96.348C48.6024 95.3263 50.8698 93.6365 52.7627 91.2788L61.8127 102.007C60.5114 103.853 58.658 105.642 56.2525 107.371C53.8865 109.1 51.0472 110.514 47.7349 111.615C44.4224 112.675 40.7156 113.207 36.6145 113.207ZM181.711 61.8653V112.027H161.777V48.249H180.469L181.711 61.8653ZM179.346 77.9573L174.672 78.0752C174.672 73.2024 175.264 68.86 176.447 65.0483C177.63 61.1973 179.306 57.9356 181.475 55.2634C183.644 52.5913 186.226 50.5675 189.223 49.1921C192.26 47.7775 195.632 47.0701 199.338 47.0701C202.295 47.0701 204.997 47.5023 207.441 48.3669C209.926 49.2314 212.055 50.6264 213.83 52.5519C215.644 54.4775 217.024 57.0318 217.971 60.2148C218.957 63.3585 219.449 67.2489 219.449 71.8859V112.027H199.398V71.8269C199.398 69.2727 199.042 67.3275 198.333 65.9914C197.622 64.616 196.598 63.6729 195.257 63.1621C193.916 62.6512 192.279 62.3958 190.347 62.3958C188.296 62.3958 186.562 62.7887 185.142 63.5747C183.722 64.3606 182.579 65.4609 181.711 66.8756C180.884 68.2509 180.272 69.8818 179.878 71.768C179.523 73.6542 179.346 75.7173 179.346 77.9573ZM228.027 80.7866V79.5487C228.027 74.8724 228.696 70.5694 230.038 66.6398C231.378 62.6708 233.35 59.2324 235.952 56.3245C238.555 53.4165 241.769 51.1569 245.594 49.5458C249.419 47.8954 253.835 47.0701 258.844 47.0701C263.891 47.0701 268.328 47.8954 272.153 49.5458C276.017 51.1569 279.251 53.4165 281.854 56.3245C284.456 59.2324 286.428 62.6708 287.768 66.6398C289.109 70.5694 289.779 74.8724 289.779 79.5487V80.7866C289.779 85.4236 289.109 89.7266 287.768 93.6956C286.428 97.6251 284.456 101.063 281.854 104.011C279.251 106.919 276.037 109.178 272.212 110.789C268.387 112.401 263.971 113.207 258.962 113.207C253.954 113.207 249.518 112.401 245.653 110.789C241.788 109.178 238.555 106.919 235.952 104.011C233.35 101.063 231.378 97.6251 230.038 93.6956C228.696 89.7266 228.027 85.4236 228.027 80.7866ZM247.96 79.5487V80.7866C247.96 83.1837 248.137 85.4236 248.493 87.5063C248.847 89.5891 249.438 91.4163 250.267 92.9881C251.095 94.5208 252.219 95.7193 253.639 96.584C255.058 97.4484 256.833 97.881 258.962 97.881C261.052 97.881 262.787 97.4484 264.167 96.584C265.587 95.7193 266.711 94.5208 267.539 92.9881C268.367 91.4163 268.959 89.5891 269.313 87.5063C269.668 85.4236 269.845 83.1837 269.845 80.7866V79.5487C269.845 77.2302 269.668 75.0493 269.313 73.0058C268.959 70.9232 268.367 69.0959 267.539 67.524C266.711 65.9129 265.587 64.6553 264.167 63.7515C262.748 62.8477 260.973 62.3958 258.844 62.3958C256.753 62.3958 254.999 62.8477 253.58 63.7515C252.2 64.6553 251.095 65.9129 250.267 67.524C249.438 69.0959 248.847 70.9232 248.493 73.0058C248.137 75.0493 247.96 77.2302 247.96 79.5487ZM318.763 61.7474V112.027H298.83V48.249H317.521L318.763 61.7474ZM316.338 77.9573L311.783 78.0752C311.783 73.5953 312.316 69.4691 313.38 65.6967C314.445 61.9242 316.022 58.643 318.113 55.8529C320.203 53.0628 322.766 50.9015 325.803 49.3689C328.878 47.8364 332.428 47.0701 336.449 47.0701C339.249 47.0701 341.792 47.5023 344.08 48.3669C346.367 49.1921 348.339 50.5085 349.995 52.3162C351.651 54.0845 352.913 56.4031 353.78 59.2717C354.687 62.101 355.141 65.5002 355.141 69.4691V112.027H335.207V72.0038C335.207 69.2923 334.892 67.2489 334.261 65.8736C333.669 64.4981 332.802 63.5747 331.658 63.1031C330.515 62.6315 329.115 62.3958 327.459 62.3958C325.723 62.3958 324.166 62.7887 322.786 63.5747C321.406 64.3606 320.222 65.4609 319.237 66.8756C318.29 68.2509 317.56 69.8818 317.048 71.768C316.575 73.6542 316.338 75.7173 316.338 77.9573ZM352.894 77.9573L347.333 78.0752C347.333 73.5953 347.826 69.4691 348.812 65.6967C349.837 61.9242 351.356 58.643 353.367 55.8529C355.417 53.0628 357.96 50.9015 360.997 49.3689C364.034 47.8364 367.562 47.0701 371.585 47.0701C374.503 47.0701 377.185 47.5023 379.63 48.3669C382.074 49.2314 384.184 50.6264 385.958 52.5519C387.733 54.4775 389.114 57.0318 390.099 60.2148C391.085 63.3585 391.578 67.2489 391.578 71.8859V112.027H371.585V71.8859C371.585 69.253 371.269 67.2686 370.638 65.9325C370.047 64.5571 369.18 63.6336 368.036 63.1621C366.893 62.6512 365.532 62.3958 363.954 62.3958C362.062 62.3958 360.426 62.7887 359.045 63.5747C357.665 64.3606 356.502 65.4609 355.555 66.8756C354.648 68.2509 353.978 69.8818 353.544 71.768C353.111 73.6542 352.894 75.7173 352.894 77.9573ZM424.052 48.249V112.027H404.059V48.249H424.052ZM402.875 31.8034C402.875 28.974 403.901 26.6555 405.951 24.8479C408.002 23.0403 410.664 22.1364 413.937 22.1364C417.21 22.1364 419.872 23.0403 421.922 24.8479C423.973 26.6555 424.998 28.974 424.998 31.8034C424.998 34.6327 423.973 36.9513 421.922 38.7589C419.872 40.5665 417.21 41.4703 413.937 41.4703C410.664 41.4703 408.002 40.5665 405.951 38.7589C403.901 36.9513 402.875 34.6327 402.875 31.8034ZM488.999 96.7018V112.027H439.431V96.7018H488.999ZM488.407 58.977L448.362 112.027H434.698V100.945L474.685 48.249H488.407V58.977ZM481.841 48.249V63.5747H435.882V48.249H481.841ZM528.866 113.207C523.661 113.207 519.008 112.401 514.907 110.789C510.806 109.139 507.336 106.88 504.497 104.011C501.697 101.142 499.547 97.8414 498.049 94.1081C496.59 90.375 495.861 86.4257 495.861 82.2602V80.0203C495.861 75.344 496.511 71.0214 497.813 67.0524C499.114 63.0442 501.046 59.5468 503.609 56.5602C506.172 53.5737 509.386 51.2552 513.251 49.6048C517.116 47.915 521.611 47.0701 526.737 47.0701C531.272 47.0701 535.334 47.7971 538.922 49.2511C542.511 50.705 545.547 52.7878 548.032 55.4992C550.555 58.2107 552.467 61.4919 553.769 65.3431C555.11 69.1941 555.78 73.5167 555.78 78.3109V86.3863H503.491V73.949H536.32V72.4164C536.359 70.2944 535.985 68.4868 535.196 66.9934C534.447 65.5002 533.343 64.3606 531.883 63.5747C530.425 62.7887 528.65 62.3958 526.56 62.3958C524.391 62.3958 522.597 62.8673 521.177 63.8104C519.797 64.7536 518.713 66.0504 517.924 67.7009C517.175 69.312 516.642 71.1785 516.327 73.3006C516.011 75.4226 515.854 77.6625 515.854 80.0203V82.2602C515.854 84.6181 516.169 86.7597 516.8 88.6852C517.47 90.6107 518.416 92.2612 519.639 93.6365C520.901 94.9727 522.399 96.014 524.135 96.7608C525.91 97.5073 527.92 97.881 530.168 97.881C532.889 97.881 535.571 97.3702 538.213 96.348C540.854 95.3263 543.122 93.6365 545.015 91.2788L554.065 102.007C552.764 103.853 550.91 105.642 548.505 107.371C546.139 109.1 543.3 110.514 539.987 111.615C536.675 112.675 532.968 113.207 528.866 113.207Z" fill="white"/>
</svg>
