<svg width="261" height="100" viewBox="0 0 261 100" fill="none" xmlns="http://www.w3.org/2000/svg">
<path d="M91.9486 57.6485L81.2924 57.5454L81.3518 51.723L92.008 51.826L91.9486 57.6485ZM32.1566 56.3378L22.2694 56.2422L22.3288 50.4197L32.216 50.5154L32.1566 56.3378ZM44.3625 58.9096C45.7052 58.9225 46.8181 58.7258 47.7012 58.3193C48.5843 57.9127 49.3601 57.2488 50.0288 56.3275C50.6974 55.4062 51.3691 54.1797 52.0439 52.6481C53.3953 49.4139 54.7795 46.5585 56.1965 44.0819C57.6131 41.6297 59.3663 39.7056 61.4558 38.3097C63.5451 36.9383 66.2498 36.2686 69.57 36.3007C72.5972 36.33 75.2262 37.1001 77.457 38.611C79.6875 40.1463 81.3997 42.2381 82.5934 44.8865C83.8113 47.5595 84.4026 50.6294 84.3673 54.096C84.3404 56.7326 83.9252 59.1334 83.1219 61.2986C82.3185 63.4638 81.1641 65.3326 79.6587 66.905C78.1778 68.4777 76.3588 69.6809 74.2017 70.5146C72.0691 71.3485 69.6478 71.7523 66.938 71.7261L67.0639 59.3854C68.4554 59.3989 69.6531 59.264 70.6571 58.9807C71.6607 58.7219 72.4826 58.3392 73.1225 57.8326C73.7625 57.3261 74.2324 56.7325 74.5324 56.0517C74.8567 55.3713 75.023 54.6282 75.0312 53.8226C75.0436 52.6019 74.7852 51.6106 74.2558 50.8486C73.7509 50.0869 73.0729 49.531 72.2219 49.1809C71.371 48.8309 70.4206 48.6508 69.3709 48.6407C68.2723 48.63 67.3061 48.8038 66.4723 49.162C65.6627 49.5448 64.8992 50.1966 64.1818 51.1174C63.4887 52.0385 62.7678 53.3011 62.019 54.9053C60.6439 58.066 59.2235 60.8844 57.7577 63.3606C56.292 65.8368 54.5021 67.7727 52.3882 69.1683C50.2984 70.5886 47.6056 71.2828 44.3098 71.2509C41.1362 71.2203 38.4339 70.4495 36.2031 68.9386C33.9967 67.4279 32.3212 65.3364 31.1765 62.6641C30.0319 59.9917 29.4773 56.9101 29.5129 53.419C29.5368 51.0754 29.8658 48.7469 30.4997 46.4336C31.1335 44.1447 32.1436 42.0548 33.5302 40.1638C34.9409 38.2975 36.7994 36.8139 39.1056 35.7131C41.4119 34.6123 44.2373 34.0781 47.5819 34.1104L47.456 46.4511C45.8204 46.4353 44.4512 46.6174 43.3487 46.9974C42.2461 47.3773 41.3619 47.8937 40.696 48.5465C40.0543 49.2239 39.5826 49.9884 39.2809 50.84C39.0037 51.6919 38.8603 52.5817 38.8509 53.5093C38.8382 54.7544 39.072 55.7699 39.5523 56.5558C40.057 57.342 40.7225 57.9222 41.5488 58.2964C42.3992 58.6953 43.3371 58.8997 44.3625 58.9096Z" fill="#07BB39"/>
<path d="M15.1123 67.4883C12.9639 67.4883 11.0433 67.1546 9.35059 66.4873C7.65788 65.8037 6.22559 64.8678 5.05371 63.6797C3.89811 62.4915 3.01107 61.1243 2.39258 59.5781C1.79036 58.0319 1.48926 56.3962 1.48926 54.6709V53.7432C1.48926 51.8063 1.75781 50.016 2.29492 48.3721C2.83203 46.7119 3.62956 45.2633 4.6875 44.0264C5.74544 42.7894 7.07194 41.8291 8.66699 41.1455C10.262 40.4456 12.1175 40.0957 14.2334 40.0957C16.1051 40.0957 17.7816 40.3968 19.2627 40.999C20.7438 41.6012 21.9971 42.4639 23.0225 43.5869C24.0641 44.71 24.8535 46.069 25.3906 47.6641C25.944 49.2591 26.2207 51.0495 26.2207 53.0352V56.3799H4.63867V51.2285H18.1885V50.5938C18.2048 49.7148 18.0501 48.9661 17.7246 48.3477C17.4154 47.7292 16.9596 47.2572 16.3574 46.9316C15.7552 46.6061 15.0228 46.4434 14.1602 46.4434C13.265 46.4434 12.5244 46.6387 11.9385 47.0293C11.3688 47.4199 10.9212 47.957 10.5957 48.6406C10.2865 49.3079 10.0667 50.0811 9.93652 50.96C9.80632 51.8389 9.74121 52.7666 9.74121 53.7432V54.6709C9.74121 55.6475 9.87142 56.5345 10.1318 57.332C10.4085 58.1296 10.7992 58.8132 11.3037 59.3828C11.8245 59.9362 12.443 60.3675 13.1592 60.6768C13.8916 60.986 14.7217 61.1406 15.6494 61.1406C16.7725 61.1406 17.8792 60.929 18.9697 60.5059C20.0602 60.0827 20.9961 59.3828 21.7773 58.4062L25.5127 62.8496C24.9756 63.6146 24.2106 64.3551 23.2178 65.0713C22.2412 65.7874 21.0693 66.3734 19.7021 66.8291C18.335 67.2686 16.805 67.4883 15.1123 67.4883ZM99.9023 46.2236V67H91.6748V40.584H99.3896L99.9023 46.2236ZM98.9258 52.8887L96.9971 52.9375C96.9971 50.9193 97.2412 49.1208 97.7295 47.542C98.2178 45.9469 98.9095 44.596 99.8047 43.4893C100.7 42.3825 101.766 41.5443 103.003 40.9746C104.256 40.3887 105.648 40.0957 107.178 40.0957C108.398 40.0957 109.513 40.2747 110.522 40.6328C111.548 40.9909 112.427 41.5687 113.159 42.3662C113.908 43.1637 114.478 44.2217 114.868 45.54C115.275 46.8421 115.479 48.4535 115.479 50.374V67H107.202V50.3496C107.202 49.2917 107.056 48.486 106.763 47.9326C106.47 47.363 106.047 46.9723 105.493 46.7607C104.94 46.5492 104.264 46.4434 103.467 46.4434C102.62 46.4434 101.904 46.6061 101.318 46.9316C100.732 47.2572 100.26 47.7129 99.9023 48.2988C99.5605 48.8685 99.3083 49.5439 99.1455 50.3252C98.999 51.1064 98.9258 51.9609 98.9258 52.8887ZM119.019 54.0605V53.5479C119.019 51.611 119.295 49.8288 119.849 48.2012C120.402 46.5573 121.216 45.1331 122.29 43.9287C123.364 42.7243 124.691 41.7884 126.27 41.1211C127.848 40.4375 129.671 40.0957 131.738 40.0957C133.822 40.0957 135.653 40.4375 137.231 41.1211C138.826 41.7884 140.161 42.7243 141.235 43.9287C142.31 45.1331 143.123 46.5573 143.677 48.2012C144.23 49.8288 144.507 51.611 144.507 53.5479V54.0605C144.507 55.9811 144.23 57.7633 143.677 59.4072C143.123 61.0348 142.31 62.459 141.235 63.6797C140.161 64.8841 138.835 65.82 137.256 66.4873C135.677 67.1546 133.854 67.4883 131.787 67.4883C129.72 67.4883 127.889 67.1546 126.294 66.4873C124.699 65.82 123.364 64.8841 122.29 63.6797C121.216 62.459 120.402 61.0348 119.849 59.4072C119.295 57.7633 119.019 55.9811 119.019 54.0605ZM127.246 53.5479V54.0605C127.246 55.0534 127.319 55.9811 127.466 56.8438C127.612 57.7064 127.856 58.4632 128.198 59.1143C128.54 59.749 129.004 60.2454 129.59 60.6035C130.176 60.9616 130.908 61.1406 131.787 61.1406C132.65 61.1406 133.366 60.9616 133.936 60.6035C134.521 60.2454 134.985 59.749 135.327 59.1143C135.669 58.4632 135.913 57.7064 136.06 56.8438C136.206 55.9811 136.279 55.0534 136.279 54.0605V53.5479C136.279 52.5876 136.206 51.6842 136.06 50.8379C135.913 49.9753 135.669 49.2184 135.327 48.5674C134.985 47.9001 134.521 47.3792 133.936 47.0049C133.35 46.6305 132.617 46.4434 131.738 46.4434C130.876 46.4434 130.151 46.6305 129.565 47.0049C128.996 47.3792 128.54 47.9001 128.198 48.5674C127.856 49.2184 127.612 49.9753 127.466 50.8379C127.319 51.6842 127.246 52.5876 127.246 53.5479ZM156.47 46.1748V67H148.242V40.584H155.957L156.47 46.1748ZM155.469 52.8887L153.589 52.9375C153.589 51.082 153.809 49.373 154.248 47.8105C154.688 46.248 155.339 44.889 156.201 43.7334C157.064 42.5778 158.122 41.6826 159.375 41.0479C160.645 40.4131 162.109 40.0957 163.77 40.0957C164.925 40.0957 165.975 40.2747 166.919 40.6328C167.863 40.9746 168.677 41.5199 169.36 42.2686C170.044 43.001 170.565 43.9613 170.923 45.1494C171.297 46.3213 171.484 47.7292 171.484 49.373V67H163.257V50.4229C163.257 49.2998 163.127 48.4535 162.866 47.8838C162.622 47.3141 162.264 46.9316 161.792 46.7363C161.32 46.541 160.742 46.4434 160.059 46.4434C159.342 46.4434 158.7 46.6061 158.13 46.9316C157.56 47.2572 157.072 47.7129 156.665 48.2988C156.274 48.8685 155.973 49.5439 155.762 50.3252C155.566 51.1064 155.469 51.9609 155.469 52.8887ZM170.557 52.8887L168.262 52.9375C168.262 51.082 168.465 49.373 168.872 47.8105C169.295 46.248 169.922 44.889 170.752 43.7334C171.598 42.5778 172.648 41.6826 173.901 41.0479C175.155 40.4131 176.611 40.0957 178.271 40.0957C179.476 40.0957 180.583 40.2747 181.592 40.6328C182.601 40.9909 183.472 41.5687 184.204 42.3662C184.937 43.1637 185.506 44.2217 185.913 45.54C186.32 46.8421 186.523 48.4535 186.523 50.374V67H178.271V50.374C178.271 49.2835 178.141 48.4616 177.881 47.9082C177.637 47.3385 177.279 46.9561 176.807 46.7607C176.335 46.5492 175.773 46.4434 175.122 46.4434C174.341 46.4434 173.665 46.6061 173.096 46.9316C172.526 47.2572 172.046 47.7129 171.655 48.2988C171.281 48.8685 171.004 49.5439 170.825 50.3252C170.646 51.1064 170.557 51.9609 170.557 52.8887ZM199.927 40.584V67H191.675V40.584H199.927ZM191.187 33.7725C191.187 32.6006 191.61 31.6403 192.456 30.8916C193.302 30.1429 194.401 29.7686 195.752 29.7686C197.103 29.7686 198.201 30.1429 199.048 30.8916C199.894 31.6403 200.317 32.6006 200.317 33.7725C200.317 34.9443 199.894 35.9046 199.048 36.6533C198.201 37.402 197.103 37.7764 195.752 37.7764C194.401 37.7764 193.302 37.402 192.456 36.6533C191.61 35.9046 191.187 34.9443 191.187 33.7725ZM226.733 60.6523V67H206.274V60.6523H226.733ZM226.489 45.0273L209.961 67H204.321V62.4102L220.825 40.584H226.489V45.0273ZM223.779 40.584V46.9316H204.81V40.584H223.779ZM243.188 67.4883C241.04 67.4883 239.119 67.1546 237.427 66.4873C235.734 65.8037 234.302 64.8678 233.13 63.6797C231.974 62.4915 231.087 61.1243 230.469 59.5781C229.867 58.0319 229.565 56.3962 229.565 54.6709V53.7432C229.565 51.8063 229.834 50.016 230.371 48.3721C230.908 46.7119 231.706 45.2633 232.764 44.0264C233.822 42.7894 235.148 41.8291 236.743 41.1455C238.338 40.4456 240.194 40.0957 242.31 40.0957C244.181 40.0957 245.858 40.3968 247.339 40.999C248.82 41.6012 250.073 42.4639 251.099 43.5869C252.14 44.71 252.93 46.069 253.467 47.6641C254.02 49.2591 254.297 51.0495 254.297 53.0352V56.3799H232.715V51.2285H246.265V50.5938C246.281 49.7148 246.126 48.9661 245.801 48.3477C245.492 47.7292 245.036 47.2572 244.434 46.9316C243.831 46.6061 243.099 46.4434 242.236 46.4434C241.341 46.4434 240.601 46.6387 240.015 47.0293C239.445 47.4199 238.997 47.957 238.672 48.6406C238.363 49.3079 238.143 50.0811 238.013 50.96C237.882 51.8389 237.817 52.7666 237.817 53.7432V54.6709C237.817 55.6475 237.948 56.5345 238.208 57.332C238.485 58.1296 238.875 58.8132 239.38 59.3828C239.901 59.9362 240.519 60.3675 241.235 60.6768C241.968 60.986 242.798 61.1406 243.726 61.1406C244.849 61.1406 245.955 60.929 247.046 60.5059C248.136 60.0827 249.072 59.3828 249.854 58.4062L253.589 62.8496C253.052 63.6146 252.287 64.3551 251.294 65.0713C250.317 65.7874 249.146 66.3734 247.778 66.8291C246.411 67.2686 244.881 67.4883 243.188 67.4883Z" fill="black"/>
</svg>
